<svg width="280" height="260" xmlns="http://www.w3.org/2000/svg" version="1.1">

 <g>
  <title>Layer 1</title>
  <path id="svg_1" stroke-width="30" stroke-linecap="round" stroke="#f1bf15" fill="none" d="m15,150c6.3913,2.885 20.753,8.8719 30,25c20,35 25,70 -5,70s-25,-35 -5,-70l60,-90c20,-35 25,-70 -5,-70s-25,35 -5,70l60,90c20,35 25,70 -5,70s-25,-35 -5,-70l60,-90c20,-35 25,-70 -5,-70s-25,35 -5,70l60,90c20,35 25,70 -5,70s-25,-35 -5,-70c9.2467,-16.128 23.609,-22.115 30,-25"/>
  <path id="svg_2" stroke-dasharray="1374" stroke-dashoffset="1374" stroke-width="30" stroke-linecap="round" stroke="#f1bf15" fill="#f8507d" d="m15,150c6.3913,2.885 20.753,8.8719 30,25c20,35 25,70 -5,70s-25,-35 -5,-70l60,-90c20,-35 25,-70 -5,-70s-25,35 -5,70l60,90c20,35 25,70 -5,70s-25,-35 -5,-70l60,-90c20,-35 25,-70 -5,-70s-25,35 -5,70l60,90c20,35 25,70 -5,70s-25,-35 -5,-70c9.2467,-16.128 23.609,-22.115 30,-25"/>
 </g>
</svg>